<svg xmlns="http://www.w3.org/2000/svg" viewBox="0 0 158 109.3"><style>.st143{fill:#ffb800}.st266{fill:#2e2459}.st267{fill:#51e0e0}</style><g id="Layer_1"><path d="M136.9 0H27.4c-6.2 0-11.2 5-11.2 11.2v75.3c0 6.2 5 11.2 11.2 11.2H111l19.6 11.2c.8.4 1.7.3 2.3-.2.4-.4.7-.9.7-1.5v-9.4h3.3c6.2 0 11.2-5 11.2-11.2V11.2c0-6.2-5-11.2-11.2-11.2z" fill="#423275"/><path class="st266" d="M41 12.9c5.5-.3 8.6 3.1 9 9.2l.1 1.2-5.3.3-.2-1.6c-.2-2.7-1.3-3.7-3.1-3.6-1.8.1-2.8 1.2-2.6 3.9.2 2.8 1.5 4.8 5.4 8 5 4.1 6.7 7.1 6.9 11.3.4 5.9-2.2 9.3-7.6 9.6-5.4.3-8.5-2.9-8.9-8.8l-.2-2.3 5.3-.3.2 2.6c.2 2.6 1.4 3.5 3.1 3.4 1.8-.1 2.8-1.1 2.6-3.7-.2-2.7-1.4-4.6-5.3-7.8-5-4.1-6.7-7.1-7.1-11.5-.4-6 2.1-9.6 7.7-9.9zM66.9 22.9l.5 4.2c.6 5.1-1.4 8.2-6.1 8.8l-2.3.2 1.5 11.8-4.7.6-4.3-31.8 7.1-.9c4.9-.6 7.6 1.9 8.3 7.1zM57 20.7l1.4 10.9 2.3-.3c1.5-.2 2.2-1 2-3.3l-.7-4.8c-.3-2.3-1.2-2.9-2.7-2.7l-2.3.2zM75.1 29.3l8.3.8-.5 5.1-8.3-.8-.9 10.3 10.3 1-.5 4.9L67.3 49l2.9-35.4L87 15.1l-.5 5.2-10.5-1-.9 10zM106.5 52.8l-5.8-.1-.5-6.9-7.1-.1-1.5 6.8-5.3-.1L94.9 14l8.7.1 2.9 38.7zM94.2 40.7l5.6.1-1.3-19.7h-.1l-4.2 19.6zM116.7 37.8l-2 2.8-1.8 9.7-4.8-.4 5.9-32 4.9.4-2.6 14.1h.1l9-13.6 4.9.4-9.6 13.9 3.3 18.1-4.9-.4-2.4-13z"/><g><path class="st266" d="M37.6 57.9l13.7-.9.3 4.1-4.6.3 2.1 24.3-4.3.3-2.2-24.3-4.6.3-.4-4.1zM55.2 61.7c.4-4.9 3.2-7.4 7.8-6.9s6.9 3.6 6.4 8.5l-1.6 15.6c-.5 4.7-3.2 7.1-7.7 6.6s-6.7-3.5-6.3-8.2l1.4-15.6zm3.2 16.5c-.2 2.1.7 3 2.1 3.2 1.5.2 2.5-.5 2.7-2.7l1.6-16.2c.2-2.2-.6-3.1-2.1-3.3-1.5-.2-2.5.6-2.7 2.7l-1.6 16.3zM82.7 57.5l1.5 22.8c.1 2.1 1.1 2.8 2.5 2.6 1.4-.1 2.3-.9 2.2-3L87.5 57l4.4-.3 1.3 22.6c.3 4.6-1.9 7.4-6.3 7.8-4.4.3-6.9-2.2-7.2-6.8l-1.6-22.5 4.6-.3zM105.1 56.5c5.1.4 7.4 3.7 6.9 9.1l-.1 1.1-4.9-.3.1-1.4c.2-2.4-.6-3.4-2.3-3.5-1.7-.1-2.7.7-2.9 3.2-.2 2.5.7 4.4 3.8 7.6 4 4.2 5.1 7 4.7 10.8-.5 5.2-3.4 8-8.4 7.7-5-.4-7.3-3.5-6.9-8.7l.2-2 4.9.3-.2 2.4c-.2 2.3.7 3.3 2.4 3.4 1.6.1 2.7-.7 2.9-3 .2-2.4-.6-4.3-3.8-7.5-4-4.2-5.1-7-4.8-10.9.4-5.7 3.3-8.6 8.4-8.3zM114.2 79.1l1.1-8.6v-.1l1.9-10.1c.2-1 1.1-1.7 2.1-1.5l.9.2c1 .2 1.6 1.1 1.4 2.1l-1.9 10.1v.1l-2.1 8.4c-.2.9-1.1 1.5-2 1.4-.9-.2-1.5-1.1-1.4-2zM117 85l-.1.8c-.2.9-1.1 1.6-2 1.4l-.8-.1c-.9-.2-1.6-1-1.4-2l.1-.8c.2-1 1.1-1.6 2-1.4l.8.1c1 .2 1.6 1.1 1.4 2z"/></g><g><path class="st267" d="M41 10.7c5.5-.3 8.6 3.1 9 9.2l.1 1.2-4 .2c-.7 0-1.4-.5-1.4-1.3v-.3c-.2-2.7-1.3-3.7-3.1-3.6-1.8.1-2.8 1.2-2.6 3.9.2 2.8 1.5 4.8 5.4 8 5 4.1 6.7 7.1 6.9 11.3.4 5.9-2.2 9.3-7.6 9.6-5.4.3-8.5-2.9-8.9-8.8l-.1-.9c-.1-.8.5-1.4 1.3-1.5l2.6-.1c.7 0 1.4.5 1.4 1.2l.1 1.3c.2 2.6 1.4 3.5 3.1 3.4 1.8-.1 2.8-1.1 2.6-3.7-.2-2.7-1.4-4.6-5.3-7.8-5-4.1-6.7-7.1-7.1-11.5-.5-5.8 2-9.5 7.6-9.8zM66.9 20.7l.5 4.2C68 30 66 33 61.3 33.6l-.9.1c-.7.1-1.3.8-1.2 1.5l1.2 9.1c.1.7-.4 1.4-1.2 1.5l-2 .3c-.7.1-1.4-.4-1.5-1.2l-3.9-29.1c-.1-.7.4-1.4 1.2-1.5l5.8-.7c4.7-.6 7.4 1.9 8.1 7.1zm-9.7-.8l1.1 8.2c.1.7.8 1.3 1.5 1.2l.9-.1c1.5-.2 2.2-1 2-3.3L62 21c-.3-2.3-1.2-2.9-2.7-2.7l-.9.1c-.8.1-1.3.7-1.2 1.5zM76.4 27.2l5.6.6c.7.1 1.3.7 1.2 1.5l-.2 2.3c-.1.7-.7 1.3-1.5 1.2l-5.5-.5c-.7-.1-1.4.5-1.5 1.2l-.6 7.5c-.1.7.5 1.4 1.2 1.5l7.6.7c.7.1 1.3.7 1.2 1.5l-.2 2.3c-.1.7-.7 1.3-1.5 1.2l-13.5-1.3c-.7-.1-1.3-.7-1.2-1.5l2.7-32.8c.1-.7.7-1.3 1.5-1.2l14 1.4c.7.1 1.3.7 1.2 1.5l-.2 2.5c-.1.7-.7 1.3-1.5 1.2l-7.8-.8c-.7-.1-1.4.5-1.5 1.2l-.6 7.3c-.2.8.4 1.4 1.1 1.5zM105 50.6h-3.1c-.7 0-1.3-.6-1.3-1.3l-.3-4.4c0-.7-.6-1.2-1.3-1.3h-4.8c-.6 0-1.2.4-1.3 1.1l-1 4.7c-.1.6-.7 1.1-1.3 1.1h-2.5c-.9 0-1.5-.8-1.3-1.6L94.7 13c.1-.6.7-1.1 1.3-1.1l6.4.1c.7 0 1.3.5 1.3 1.2l2.7 36c0 .8-.6 1.4-1.4 1.4zm-9.2-12.1h2.5c.8 0 1.4-.7 1.4-1.4l-1.2-18.2h-.1l-3.8 18c-.3.8.4 1.6 1.2 1.6zM114.8 38.2c-.1.2-.2.3-.2.5l-1.5 8.2c-.1.7-.7 1.1-1.4 1.1l-2.1-.2c-.8-.1-1.4-.8-1.2-1.6l5.4-29.4c.1-.7.7-1.2 1.4-1.1l2.2.2c.8.1 1.4.8 1.2 1.6l-2.4 12.6h.1l8.5-12.9c.3-.4.7-.6 1.2-.6l1.8.1c1 .1 1.6 1.3 1 2.1l-8 11.6c-.2.3-.3.7-.2 1l2.9 15.8c.2.9-.5 1.7-1.4 1.6l-2.1-.2c-.6 0-1.1-.5-1.2-1.1l-1.6-8.8c-.2-1.1-1.7-1.5-2.4-.5z"/><g><path class="st267" d="M38.9 55.6l11-.7c.7 0 1.4.5 1.4 1.2l.1 1.5c.1.8-.5 1.4-1.3 1.5l-1.9.1c-.8 0-1.3.7-1.3 1.5L49 82.1c.1.8-.5 1.4-1.3 1.5l-1.7.1c-.7 0-1.4-.5-1.4-1.2l-2-21.7c-.1-.7-.7-1.3-1.4-1.2l-2 .1c-.7 0-1.4-.5-1.4-1.2l-.1-1.5c-.1-.7.5-1.4 1.2-1.4zM55.2 59.5c.4-4.9 3.2-7.4 7.8-6.9s6.9 3.6 6.4 8.5l-1.6 15.6c-.5 4.7-3.2 7.1-7.7 6.6s-6.7-3.5-6.3-8.2l1.4-15.6zM58.4 76c-.2 2.1.7 3 2.1 3.2 1.5.2 2.5-.5 2.7-2.7l1.6-16.2c.2-2.2-.6-3.1-2.1-3.3-1.5-.2-2.5.6-2.7 2.7L58.4 76zM81.4 55.4c.7-.1 1.4.5 1.4 1.3l1.4 21.5c.1 2.1 1.1 2.8 2.5 2.6 1.4-.1 2.3-.9 2.2-3l-1.4-21.5c0-.7.5-1.4 1.2-1.4l1.7-.1c.7-.1 1.4.5 1.4 1.3l1.3 21.2c.3 4.6-1.9 7.4-6.3 7.8-4.4.3-6.9-2.2-7.2-6.8L78.2 57c-.1-.7.5-1.4 1.2-1.4l2-.2zM105.1 54.3c5.1.4 7.4 3.7 6.9 9.1l-.1 1.1-3.5-.3c-.8-.1-1.3-.7-1.2-1.5.2-2.4-.6-3.4-2.3-3.5-1.7-.1-2.7.7-2.9 3.2-.2 2.5.7 4.4 3.8 7.6 4 4.2 5.1 7 4.7 10.8-.5 5.2-3.4 8-8.4 7.7-5-.4-7.3-3.5-6.9-8.7l.1-.7c.1-.7.7-1.3 1.4-1.2l2.2.2c.8.1 1.3.7 1.2 1.5l-.1 1c-.2 2.3.7 3.3 2.4 3.4 1.6.1 2.7-.7 2.9-3 .2-2.4-.6-4.3-3.8-7.5-4-4.2-5.1-7-4.8-10.9.4-5.7 3.3-8.6 8.4-8.3zM114.2 76.9l1.1-8.5v-.2l1.9-10.1c.2-1 1.1-1.7 2.1-1.5l.9.2c1 .2 1.6 1.1 1.4 2.1L119.7 69v.2l-2.1 8.4c-.2.9-1.1 1.5-2 1.4-.9-.3-1.5-1.1-1.4-2.1zm2.8 6l-.1.8c-.2.9-1.1 1.6-2 1.4l-.8-.1c-.9-.2-1.6-1-1.4-2l.1-.8c.2-1 1.1-1.6 2-1.4l.8.1c1 .1 1.6 1 1.4 2z"/></g></g><g><path class="st143" d="M139 52.6s18.8 6.2 18.9 2.9c0 0 .2-4.2-.6-5.3-.9-1.1-23.4.4-18.3 2.4zM130.6 60.5s8.4 12.7 10.1 10.7c0 0 2.2-2.4 2.1-3.5 0-1.1-14.3-10.9-12.2-7.2zM134.2 43.5s19.5-2.8 18.1-5.5c0 0-1.7-3.3-3-3.8-1.2-.4-20.6 9.9-15.1 9.3z"/></g><g><path class="st143" d="M19.1 50S-.1 54.8 0 51.4c0 0 .1-4.2 1-5.2 1-1 23.4 2.1 18.1 3.8zM26.9 58.4s-9.4 12-10.9 9.9c0 0-2-2.6-1.9-3.7s15.2-9.7 12.8-6.2zM24.6 41.3S5.3 37 6.9 34.5c0 0 2-3.2 3.3-3.5S30 42.2 24.6 41.3z"/></g></g></svg>