<?xml version="1.0" encoding="utf-8"?>
<!-- Generator: Adobe Illustrator 19.0.0, SVG Export Plug-In . SVG Version: 6.00 Build 0)  -->
<svg version="1.1" id="Layer_1" xmlns="http://www.w3.org/2000/svg" xmlns:xlink="http://www.w3.org/1999/xlink" x="0px" y="0px"
	 viewBox="0 0 439.2 78.7" style="enable-background:new 0 0 439.2 78.7;" xml:space="preserve">
<style type="text/css">
	.st0{fill:#2D3748;}
	.st1{fill:#F79420;}
	.st2{fill:#FFFFFF;}
</style>
<g id="XMLID_392_">
	<g id="XMLID_400_">
		<g id="XMLID_405_">
			<path id="XMLID_551_" class="st0" d="M651.3-40.9c0-0.5-0.1-1-0.1-1.5c0-14.3,0-28.6,0-42.8c0-0.5,0-1,0.1-1.5
				c2.3,1.6,4.4,3.3,6.6,5c3.7,2.8,7.4,5.7,11.1,8.6c0,0.6-0.1,1.2-0.1,1.7c0,4.9,0,9.9,0,14.8c0,0.7,0,1.4,0.1,2.1
				c-4.5,3.5-9,7-13.5,10.4C654.1-43,652.8-41.8,651.3-40.9z"/>
		</g>
		<g id="XMLID_404_">
			<path id="XMLID_549_" class="st1" d="M668.9-54.4c0-0.7-0.1-1.4-0.1-2.1c0-4.9,0-9.9,0-14.8c0-0.6,0-1.2,0.1-1.7
				c3.9,3,7.9,6.1,11.8,9.1c0.1,0,0.1,0.1,0.2,0.4C676.9-60.6,672.9-57.5,668.9-54.4z"/>
		</g>
		<g id="XMLID_403_">
			<path id="XMLID_547_" class="st1" d="M650-14.2c-0.1,0-0.3,0-0.4,0c-2.3,0-4.6,0-6.9,0h-2.1v0c-10.9,0-21.7,0-32.6,0
				c-7.4,0-13.4-6-13.3-13.4c0.1-7.2,6-13.1,13.2-13.1c14,0,28,0,41.9,0c0.5,0,1.1,0.2,1.6-0.2c0-0.5-0.1-1-0.1-1.5
				c0-14.3,0-28.6,0-42.8c0-0.5,0-1,0.1-1.5c-0.3-0.2-0.7-0.1-1.1-0.1c-14.2,0-28.3,0-42.5,0c-1.7,0-3.3,0.2-4.9,0.7
				c-8.8,2.3-14.8,10.4-14.7,19.1c0,13.2,0,26.4,0,39.5c0,1.1,0.1,2.1,0.2,3.2c1.5,9.4,9.8,16.5,19.4,16.5c10.9,0,21.8,0,32.8,0v0
				h11.2v-6.5H650z"/>
		</g>
		<g id="XMLID_402_">
			<path id="XMLID_545_" class="st0" d="M651.8-24.3h-1.1c-0.2,0-0.5,0-0.7,0c-0.9,0-1.8,0-2.6,0h-1.4v0c-12,0-24,0-36,0
				c-0.3,0-0.5,0-0.8,0c-0.8-0.1-1.4,0.7-1.4,1.3c0,0.7,0.5,1.3,1.4,1.3c0.3,0,0.6,0,0.9,0c6.6,0,13.2,0,19.8,0c0,0,0,0,0,0
				c5.4,0,10.7,0,16.1,0l0,0h3.8c0.2,0,0.4,0,0.6,0h1.5V-24.3z"/>
		</g>
		<g id="XMLID_401_">
			<path id="XMLID_543_" class="st0" d="M650.8-33.3c-0.2,0-0.4,0-0.7,0c-13.4,0-26.9,0-40.3,0c-0.4,0-0.7,0-1.1,0.1
				c-0.7,0.2-1.1,0.7-1,1.4c0,0.7,0.5,1.1,1.2,1.2c0.3,0,0.6,0,0.9,0c6.6,0,13.3,0,19.9,0c0,0,0,0,0,0c6.6,0,13.3,0,19.9,0
				c0.3,0,0.6,0,0.9,0c0.1,0,0.2,0,0.3,0h0.9v-2.7H650.8z"/>
		</g>
	</g>
	<g id="XMLID_399_">
		<path id="XMLID_395_" class="st0" d="M685.7-18.7h-5.5c-1.4,0-2.4,0.5-3,1.4c-0.4,0.6-0.6,1.5-0.6,2.4c0,0.4,0,0.6,0,0.6
			c0,0.1,0,0.1,0.1,0.2v5.5H671c0-0.4,0-1,0-1.8s0-1.7,0-2.9c0-1.2,0-2.5,0-3.9c0-2.1,0.5-3.7,1.5-5c1.2-1.5,2.9-2.2,5.2-2.2h7
			c0.6,0,1.1-0.2,1.5-0.7s0.5-1,0.5-1.6c0-0.6-0.2-1.2-0.5-1.6c-0.4-0.5-0.9-0.7-1.5-0.7H671v-5.5h14.7c2.2,0,3.9,0.8,5.2,2.4
			c1.2,1.5,1.7,3.3,1.7,5.4c0,2.1-0.6,3.9-1.7,5.4C689.6-19.5,687.9-18.7,685.7-18.7z"/>
		<path id="XMLID_397_" class="st0" d="M718.2-8.5H712l-6.8-19.9c0-0.2-0.2-0.3-0.4-0.3c-0.2,0-0.4,0.1-0.5,0.3l-6.6,19.9h-6.2
			c0.4-1.2,1.1-3.7,2.3-7.3c1.2-3.7,2.3-7.1,3.4-10.4c1.2-3.6,2-5.6,2.2-6.1c0.5-0.7,1.2-1.3,2.2-1.7s2-0.6,3.2-0.6s2.2,0.2,3.2,0.6
			s1.7,0.9,2.2,1.7c0.3,0.4,1.1,2.4,2.3,6c0.7,2.2,1.9,5.7,3.3,10.4C716.7-13,717.5-10.6,718.2-8.5z"/>
		<path id="XMLID_406_" class="st0" d="M734.3-18.7h-5.5c-1.4,0-2.4,0.5-3,1.4c-0.4,0.6-0.6,1.5-0.6,2.4c0,0.4,0,0.6,0,0.6
			c0,0.1,0,0.1,0.1,0.2v5.5h-5.6c0-0.4,0-1,0-1.8s0-1.7,0-2.9c0-1.2,0-2.5,0-3.9c0-2.1,0.5-3.7,1.5-5c1.2-1.5,2.9-2.2,5.2-2.2h7
			c0.6,0,1.1-0.2,1.5-0.7s0.5-1,0.5-1.6c0-0.6-0.2-1.2-0.5-1.6c-0.4-0.5-0.9-0.7-1.5-0.7h-13.8v-5.5h14.7c2.2,0,3.9,0.8,5.2,2.4
			c1.2,1.5,1.7,3.3,1.7,5.4c0,2.1-0.6,3.9-1.7,5.4C738.2-19.5,736.5-18.7,734.3-18.7z"/>
		<path id="XMLID_453_" class="st0" d="M765.3-8.5h-14.7c-2.2,0-3.9-0.8-5.2-2.5c-1.2-1.5-1.7-3.3-1.7-5.5c0-1.9,0.5-3.6,1.5-5.1
			c-1-1.4-1.5-3.1-1.5-5c0-2.1,0.6-3.9,1.7-5.4c1.3-1.6,3-2.5,5.2-2.5h14.7v5.5h-13.8c-0.6,0-1.1,0.2-1.5,0.7
			c-0.4,0.5-0.5,1-0.5,1.7c0,0.6,0.2,1.1,0.5,1.6c0.3,0.4,0.8,0.7,1.5,0.7h13.8v5.4v0.1h-14.5c-0.4,0.2-0.7,0.5-0.9,0.9
			c-0.2,0.4-0.3,0.9-0.3,1.4c0,0.6,0.2,1.2,0.5,1.7c0.3,0.5,0.8,0.7,1.5,0.7h13.8V-8.5z"/>
		<path id="XMLID_456_" class="st0" d="M789.8-8.5L773.5-15v6.4h-5.6v-8.6c0-2.1,0.5-3.7,1.5-5c1.2-1.5,2.9-2.2,5.2-2.2h7
			c0.6,0,1.1-0.2,1.5-0.7s0.5-1,0.5-1.6c0-0.6-0.2-1.2-0.5-1.6c-0.4-0.5-0.9-0.7-1.5-0.7h-13.8v-5.5h14.7c2.2,0,3.9,0.8,5.2,2.4
			c1.2,1.5,1.7,3.3,1.7,5.4c0,2.1-0.6,3.9-1.7,5.4c-1.3,1.6-3,2.5-5.2,2.5H779l10.8,4.1V-8.5z"/>
		<path id="XMLID_460_" class="st0" d="M826.6-8.5h-5.7v-10.2h-10.3v10.2h-5.7v-25.8h5.7v10.1h10.3v-10.1h5.7V-8.5z"/>
		<path id="XMLID_463_" class="st0" d="M850.7-8.5H836c-2.2,0-3.9-0.8-5.2-2.5c-1.2-1.5-1.7-3.3-1.7-5.5c0-1.9,0.5-3.6,1.5-5.1
			c-1-1.4-1.5-3.1-1.5-5c0-2.1,0.6-3.9,1.7-5.4c1.3-1.6,3-2.5,5.2-2.5h14.7v5.5H837c-0.6,0-1.1,0.2-1.5,0.7c-0.4,0.5-0.5,1-0.5,1.7
			c0,0.6,0.2,1.1,0.5,1.6c0.3,0.4,0.8,0.7,1.5,0.7h13.8v5.4v0.1h-14.5c-0.4,0.2-0.7,0.5-0.9,0.9c-0.2,0.4-0.3,0.9-0.3,1.4
			c0,0.6,0.2,1.2,0.5,1.7c0.3,0.5,0.8,0.7,1.5,0.7h13.8V-8.5z"/>
		<path id="XMLID_465_" class="st0" d="M874.9-8.5h-10.3c-3.3,0-5.8-0.8-7.7-2.5c-1.5-1.3-2.6-3-3.2-5.2c-0.4-1.5-0.6-3-0.6-4.7
			c0-0.4,0-0.7,0-0.8c0-0.2,0-0.3,0.1-0.4v-12.1h5.7v12.1c0,2.2,0.5,4,1.4,5.5c1.1,1.7,2.5,2.6,4.4,2.6h10.3V-8.5z"/>
		<path id="XMLID_467_" class="st0" d="M892.1-18.7h-5.5c-1.4,0-2.4,0.5-3,1.4c-0.4,0.6-0.6,1.5-0.6,2.4c0,0.4,0,0.6,0,0.6
			c0,0.1,0,0.1,0.1,0.2v5.5h-5.6c0-0.4,0-1,0-1.8s0-1.7,0-2.9c0-1.2,0-2.5,0-3.9c0-2.1,0.5-3.7,1.5-5c1.2-1.5,2.9-2.2,5.2-2.2h7
			c0.6,0,1.1-0.2,1.5-0.7c0.4-0.4,0.5-1,0.5-1.6c0-0.6-0.2-1.2-0.5-1.6c-0.4-0.5-0.9-0.7-1.5-0.7h-13.8v-5.5h14.7
			c2.2,0,3.9,0.8,5.2,2.4c1.2,1.5,1.7,3.3,1.7,5.4c0,2.1-0.6,3.9-1.7,5.4C896.1-19.5,894.3-18.7,892.1-18.7z"/>
		<path id="XMLID_469_" class="st0" d="M926.8-8.5h-12.6v-25.8h12.6c3,0,5.4,1.4,7.2,4.1c1.6,2.5,2.4,5.5,2.4,9
			c0,3.5-0.8,6.4-2.4,8.8C932.2-9.8,929.8-8.5,926.8-8.5z M925.8-14.1c1.4,0,2.4-0.8,3.3-2.4c0.7-1.4,1.1-3.2,1.1-5.2
			c0-2-0.4-3.6-1.1-5c-0.8-1.5-1.9-2.2-3.3-2.2h-6v14.8H925.8z"/>
		<path id="XMLID_472_" class="st0" d="M960.1-8.5h-14.7c-2.2,0-3.9-0.8-5.2-2.5c-1.2-1.5-1.7-3.3-1.7-5.5c0-1.9,0.5-3.6,1.5-5.1
			c-1-1.4-1.5-3.1-1.5-5c0-2.1,0.6-3.9,1.7-5.4c1.3-1.6,3-2.5,5.2-2.5h14.7v5.5h-13.8c-0.6,0-1.1,0.2-1.5,0.7
			c-0.4,0.5-0.5,1-0.5,1.7c0,0.6,0.2,1.1,0.5,1.6s0.8,0.7,1.5,0.7h13.8v5.4v0.1h-14.5c-0.4,0.2-0.7,0.5-0.9,0.9
			c-0.2,0.4-0.3,0.9-0.3,1.4c0,0.6,0.2,1.2,0.5,1.7s0.8,0.7,1.5,0.7h13.8V-8.5z"/>
		<path id="XMLID_474_" class="st0" d="M984.2-28.9h-13.8c-0.6,0-1.1,0.2-1.5,0.7c-0.4,0.5-0.5,1-0.5,1.7c0,0.6,0.2,1.1,0.5,1.6
			s0.8,0.7,1.5,0.7h8.1c2.2,0,3.9,0.8,5.2,2.5c1.1,1.5,1.7,3.3,1.7,5.4c0,2.1-0.6,4-1.7,5.4c-1.3,1.6-3,2.5-5.2,2.5h-14.8V-14h13.8
			c0.6,0,1.1-0.2,1.4-0.7c0.3-0.5,0.5-1,0.5-1.7s-0.2-1.2-0.5-1.6c-0.3-0.4-0.8-0.7-1.4-0.7h-8.1c-2.2,0-3.9-0.8-5.2-2.4
			c-1.2-1.5-1.7-3.2-1.7-5.4c0-2.1,0.6-3.9,1.7-5.4c1.3-1.6,3-2.5,5.2-2.5h14.7V-28.9z"/>
		<path id="XMLID_476_" class="st0" d="M1008.7-8l-16.4-6.5v5.9h-5.7v-25.9h5.7v6.3l16.4-6.5v6.2l-15.5,6.6v1l15.5,6.8V-8z"/>
	</g>
</g>
<g id="XMLID_394_">
	<g id="XMLID_393_">
		<path id="XMLID_478_" class="st0" d="M145.4,25.7c0,1.8-0.5,3.3-1.5,4.5c-1,1.2-2.2,1.9-3.6,1.9h-10.2v24.3c0,0.8-0.3,1.3-1,1.3
			H126c-0.7,0-1-0.4-1-1.3V7.8c0-0.8,0.3-1.3,1-1.3h14.3c1.4,0,2.6,0.6,3.6,1.9c1,1.2,1.5,2.7,1.5,4.5V25.7z M140.3,24.4V14.2
			c0-0.8-0.4-1.3-1-1.3h-9.2v12.8h9.2C140,25.7,140.3,25.3,140.3,24.4z"/>
		<path id="XMLID_481_" class="st0" d="M168.4,51.2c0,1.8-0.5,3.3-1.5,4.5c-1,1.2-2.2,1.9-3.6,1.9h-10.2c-1.4,0-2.6-0.6-3.6-1.9
			c-1-1.2-1.5-2.8-1.5-4.5v-7.6c0-1.8,0.5-3.3,1.5-4.5c1-1.3,2.2-1.9,3.6-1.9h10.2v-3.9c0-0.8-0.4-1.3-1-1.3h-6.6
			c-0.7,0-1-0.4-1-1.3V27c0-0.8,0.3-1.3,1-1.3h7.7c1.4,0,2.6,0.6,3.6,1.9c1,1.2,1.5,2.7,1.5,4.5V51.2z M163.3,50v-6.4h-9.2
			c-0.7,0-1,0.4-1,1.3V50c0,0.8,0.3,1.3,1,1.3h8.2C163,51.2,163.3,50.8,163.3,50z"/>
		<path id="XMLID_484_" class="st0" d="M191.4,51.2c0,1.8-0.5,3.3-1.5,4.5c-1,1.2-2.2,1.9-3.6,1.9h-10.2v11.4c0,0.9-0.3,1.3-1,1.3
			H172c-0.7,0-1-0.4-1-1.3v-37c0-1.8,0.5-3.3,1.5-4.5c1-1.2,2.2-1.9,3.6-1.9h10.2c1.4,0,2.6,0.6,3.6,1.9c1,1.2,1.5,2.7,1.5,4.5V51.2
			z M186.3,50V33.4c0-0.8-0.4-1.3-1-1.3h-8.2c-0.7,0-1,0.4-1,1.3v17.9h9.2C185.9,51.2,186.3,50.8,186.3,50z"/>
		<path id="XMLID_487_" class="st0" d="M214.4,39.8c0,1.8-0.5,3.3-1.5,4.5c-1,1.2-2.2,1.9-3.6,1.9h-10.2V50c0,0.8,0.3,1.3,1,1.3h6.6
			c0.7,0,1,0.4,1,1.3v3.9c0,0.8-0.4,1.3-1,1.3h-7.6c-1.4,0-2.6-0.6-3.6-1.9c-1-1.2-1.5-2.8-1.5-4.5V32.1c0-1.8,0.5-3.3,1.5-4.5
			c1-1.2,2.2-1.9,3.6-1.9h10.2c1.4,0,2.6,0.6,3.6,1.9c1,1.2,1.5,2.7,1.5,4.5V39.8z M209.3,38.5v-5.1c0-0.8-0.4-1.3-1-1.3h-8.2
			c-0.7,0-1,0.4-1,1.3v6.4h9.2C208.9,39.8,209.3,39.3,209.3,38.5z"/>
		<path id="XMLID_490_" class="st0" d="M234.8,37.2c0,0.8-0.3,1.3-1,1.3h-3.1c-0.7,0-1.1-0.7-1.1-2.1c0-0.3,0-0.6,0.1-1.1
			c0-0.5,0.1-0.8,0.1-1.1c0-1.4-0.4-2.1-1.1-2.1h-5.6c-0.7,0-1,0.4-1,1.3v23c0,0.8-0.3,1.3-1,1.3h-3.1c-0.7,0-1-0.4-1-1.3V32.1
			c0-1.8,0.5-3.3,1.5-4.5c1-1.2,2.2-1.9,3.6-1.9h7.6c1.4,0,2.6,0.6,3.6,1.9c1,1.2,1.5,2.7,1.5,4.5V37.2z"/>
		<path id="XMLID_492_" class="st0" d="M275.7,56.4c0,0.8-0.3,1.3-1,1.3h-3.1c-0.7,0-1-0.4-1-1.3V32.1h-10.2v24.3
			c0,0.8-0.3,1.3-1,1.3h-3.1c-0.7,0-1-0.4-1-1.3V7.8c0-0.8,0.3-1.3,1-1.3h3.1c0.7,0,1,0.4,1,1.3v17.9h10.2V7.8c0-0.8,0.3-1.3,1-1.3
			h3.1c0.7,0,1,0.4,1,1.3V56.4z"/>
		<path id="XMLID_494_" class="st0" d="M298.7,39.8c0,1.8-0.5,3.3-1.5,4.5c-1,1.2-2.2,1.9-3.6,1.9h-10.2V50c0,0.8,0.3,1.3,1,1.3h6.6
			c0.7,0,1,0.4,1,1.3v3.9c0,0.8-0.3,1.3-1,1.3h-7.6c-1.4,0-2.6-0.6-3.6-1.9c-1-1.2-1.5-2.8-1.5-4.5V32.1c0-1.8,0.5-3.3,1.5-4.5
			c1-1.2,2.2-1.9,3.6-1.9h10.2c1.4,0,2.6,0.6,3.6,1.9c1,1.2,1.5,2.7,1.5,4.5V39.8z M293.6,38.5v-5.1c0-0.8-0.4-1.3-1-1.3h-8.2
			c-0.7,0-1,0.4-1,1.3v6.4h9.2C293.2,39.8,293.6,39.3,293.6,38.5z"/>
		<path id="XMLID_497_" class="st0" d="M306.3,56.4c0,0.8-0.4,1.3-1,1.3h-3.1c-0.7,0-1-0.4-1-1.3V7.8c0-0.8,0.3-1.3,1-1.3h3.1
			c0.7,0,1,0.4,1,1.3V56.4z"/>
		<path id="XMLID_499_" class="st0" d="M329.3,51.2c0,1.8-0.5,3.3-1.5,4.5c-1,1.2-2.2,1.9-3.6,1.9H314v11.4c0,0.9-0.4,1.3-1,1.3
			h-3.1c-0.7,0-1-0.4-1-1.3v-37c0-1.8,0.5-3.3,1.5-4.5c1-1.2,2.2-1.9,3.6-1.9h10.2c1.4,0,2.6,0.6,3.6,1.9c1,1.2,1.5,2.7,1.5,4.5
			V51.2z M324.2,50V33.4c0-0.8-0.3-1.3-1-1.3H315c-0.7,0-1,0.4-1,1.3v17.9h9.2C323.9,51.2,324.2,50.8,324.2,50z"/>
		<path id="XMLID_502_" class="st0" d="M370.2,51.2c0,1.8-0.5,3.3-1.5,4.5c-1,1.2-2.2,1.9-3.6,1.9h-14.3c-0.7,0-1-0.4-1-1.3V7.8
			c0-0.8,0.3-1.3,1-1.3h14.3c1.4,0,2.6,0.6,3.6,1.9c1,1.2,1.5,2.7,1.5,4.5V51.2z M365.1,50V14.2c0-0.8-0.3-1.3-1-1.3h-9.2v38.3h9.2
			C364.8,51.2,365.1,50.8,365.1,50z"/>
		<path id="XMLID_505_" class="st0" d="M393.2,39.8c0,1.8-0.5,3.3-1.5,4.5c-1,1.2-2.2,1.9-3.6,1.9h-10.2V50c0,0.8,0.3,1.3,1,1.3h6.6
			c0.7,0,1,0.4,1,1.3v3.9c0,0.8-0.3,1.3-1,1.3h-7.6c-1.4,0-2.6-0.6-3.6-1.9c-1-1.2-1.5-2.8-1.5-4.5V32.1c0-1.8,0.5-3.3,1.5-4.5
			c1-1.2,2.2-1.9,3.6-1.9h10.2c1.4,0,2.6,0.6,3.6,1.9c1,1.2,1.5,2.7,1.5,4.5V39.8z M388.1,38.5v-5.1c0-0.8-0.3-1.3-1-1.3h-8.2
			c-0.7,0-1,0.4-1,1.3v6.4h9.2C387.7,39.8,388.1,39.3,388.1,38.5z"/>
		<path id="XMLID_508_" class="st0" d="M416.2,51.2c0,1.8-0.5,3.3-1.5,4.5c-1,1.2-2.2,1.9-3.6,1.9h-14.3c-0.7,0-1-0.4-1-1.3v-3.9
			c0-0.8,0.3-1.3,1-1.3H410c0.7,0,1-0.4,1-1.3v-3.8c0-0.8-0.3-1.3-1-1.3h-9.2c-1.4,0-2.6-0.6-3.6-1.9c-1-1.2-1.5-2.8-1.5-4.5v-6.4
			c0-1.8,0.5-3.3,1.5-4.5c1-1.2,2.2-1.9,3.6-1.9h14.3c0.7,0,1,0.4,1,1.3v3.8c0,0.8-0.3,1.3-1,1.3h-13.3c-0.7,0-1,0.4-1,1.3v3.9
			c0,0.8,0.3,1.3,1,1.3h9.2c1.4,0,2.6,0.6,3.6,1.9c1,1.2,1.5,2.7,1.5,4.5V51.2z"/>
		<path id="XMLID_510_" class="st0" d="M439.2,56.4c0,0.8-0.3,1.3-1,1.3h-3.1c-0.7,0-1-0.4-1-1.3V46.2c0-0.8-0.3-1.3-1-1.3h-9.2
			v11.5c0,0.8-0.4,1.3-1,1.3h-3.1c-0.7,0-1-0.4-1-1.3V7.8c0-0.8,0.3-1.3,1-1.3h3.1c0.7,0,1,0.4,1,1.3V34l6.3-7.9
			c0.2-0.2,0.4-0.4,0.7-0.4c0.3,0,0.6,0.1,0.8,0.4l2.1,2.7c0.2,0.3,0.3,0.6,0.3,0.9c0,0.3-0.1,0.6-0.3,0.9l-6.3,7.9h6.6
			c1.4,0,2.6,0.6,3.6,1.9c1,1.2,1.5,2.7,1.5,4.5V56.4z"/>
	</g>
	<g id="XMLID_391_">
		<g id="XMLID_461_">
			<path class="st0" d="M53.5,78.7C39.3,62,0,63.9,0,63.9L4.4,6.6c32.9-3.3,49.1,9,49.1,17.7V78.7z"/>
		</g>
		<g id="XMLID_458_">
			<path class="st1" d="M53.5,68.8C44.2,56.1,8.4,55.1,8.4,55.1l3.4-55c0,0,41.8-2,41.8,15.5V68.8z"/>
		</g>
		<g id="XMLID_457_">
			<path class="st0" d="M53.5,78.7c14.2-16.7,53.5-14.7,53.5-14.7l-4.4-57.3c-32.9-3.3-49.1,9-49.1,17.7V78.7z"/>
		</g>
		<g id="XMLID_454_">
			<path class="st1" d="M53.5,68.8c9.3-12.8,45.2-13.8,45.2-13.8l-3.4-55c0,0-41.8-2-41.8,15.5V68.8z"/>
		</g>
		<g id="XMLID_408_">
			<g id="XMLID_431_">
				<g id="XMLID_452_">
					<path class="st2" d="M61.1,11.8c7.5-3.3,17.8-4.5,25.4-4.8l0-1.2c-7.4,0.3-18.1,1.4-25.4,5V11.8z"/>
				</g>
				<g id="XMLID_451_">
					<path class="st2" d="M61.1,15.6c7.5-3.3,17.8-4.5,25.4-4.8l0-1.2c-7.4,0.3-18.1,1.4-25.4,5V15.6z"/>
				</g>
				<g id="XMLID_450_">
					<path class="st2" d="M61.1,19.4c7.5-3.3,17.8-4.5,25.4-4.8l0-1.2c-7.4,0.3-18.1,1.4-25.4,5V19.4z"/>
				</g>
				<g id="XMLID_449_">
					<path class="st2" d="M61.1,23.2c7.5-3.3,17.8-4.5,25.4-4.8l0-1.2c-7.4,0.3-18.1,1.4-25.4,5V23.2z"/>
				</g>
				<g id="XMLID_448_">
					<path class="st2" d="M61.1,27c7.5-3.3,17.8-4.5,25.4-4.8l0-1.2c-7.4,0.3-18.1,1.4-25.4,5V27z"/>
				</g>
				<g id="XMLID_447_">
					<path class="st2" d="M61.1,30.8c7.5-3.3,17.8-4.5,25.4-4.8l0-1.2c-7.4,0.3-18.1,1.4-25.4,5V30.8z"/>
				</g>
				<g id="XMLID_446_">
					<path class="st2" d="M61.1,34.7c7.5-3.3,17.8-4.5,25.4-4.8l0-1.2C79,29,68.3,30,61.1,33.7V34.7z"/>
				</g>
				<g id="XMLID_445_">
					<path class="st2" d="M61.1,38.5c7.5-3.3,17.8-4.5,25.4-4.8l0-1.2c-7.4,0.3-18.1,1.4-25.4,5V38.5z"/>
				</g>
				<g id="XMLID_444_">
					<path class="st2" d="M61.1,42.3c7.5-3.3,17.8-4.5,25.4-4.8l0-1.2c-7.4,0.3-18.1,1.4-25.4,5V42.3z"/>
				</g>
				<g id="XMLID_443_">
					<path class="st2" d="M61.1,46.1c7.5-3.3,17.8-4.5,25.4-4.8l0-1.2c-7.4,0.3-18.1,1.4-25.4,5V46.1z"/>
				</g>
				<g id="XMLID_442_">
					<path class="st2" d="M61.1,49.9c7.5-3.3,17.8-4.5,25.4-4.8l0-1.2c-7.4,0.3-18.1,1.4-25.4,5V49.9z"/>
				</g>
				<g id="XMLID_432_">
					<path class="st2" d="M61.1,53.7c7.5-3.3,17.8-4.5,25.4-4.8l0-1.2c-7.4,0.3-18.1,1.4-25.4,5V53.7z"/>
				</g>
			</g>
			<g id="XMLID_409_">
				<g id="XMLID_430_">
					<path class="st2" d="M46,11.8c-7.5-3.3-17.8-4.5-25.4-4.8l0-1.2c7.4,0.3,18.1,1.4,25.4,5V11.8z"/>
				</g>
				<g id="XMLID_429_">
					<path class="st2" d="M46,15.6c-7.5-3.3-17.8-4.5-25.4-4.8l0-1.2C28,9.9,38.7,11,46,14.6V15.6z"/>
				</g>
				<g id="XMLID_428_">
					<path class="st2" d="M46,19.4c-7.5-3.3-17.8-4.5-25.4-4.8l0-1.2c7.4,0.3,18.1,1.4,25.4,5V19.4z"/>
				</g>
				<g id="XMLID_427_">
					<path class="st2" d="M46,23.2c-7.5-3.3-17.8-4.5-25.4-4.8l0-1.2c7.4,0.3,18.1,1.4,25.4,5V23.2z"/>
				</g>
				<g id="XMLID_426_">
					<path class="st2" d="M46,27c-7.5-3.3-17.8-4.5-25.4-4.8l0-1.2c7.4,0.3,18.1,1.4,25.4,5V27z"/>
				</g>
				<g id="XMLID_425_">
					<path class="st2" d="M46,30.8c-7.5-3.3-17.8-4.5-25.4-4.8l0-1.2c7.4,0.3,18.1,1.4,25.4,5V30.8z"/>
				</g>
				<g id="XMLID_424_">
					<path class="st2" d="M46,34.7c-7.5-3.3-17.8-4.5-25.4-4.8l0-1.2C28,29,38.7,30,46,33.7V34.7z"/>
				</g>
				<g id="XMLID_414_">
					<path class="st2" d="M46,38.5c-7.5-3.3-17.8-4.5-25.4-4.8l0-1.2c7.4,0.3,18.1,1.4,25.4,5V38.5z"/>
				</g>
				<g id="XMLID_413_">
					<path class="st2" d="M46,42.3c-7.5-3.3-17.8-4.5-25.4-4.8l0-1.2c7.4,0.3,18.1,1.4,25.4,5V42.3z"/>
				</g>
				<g id="XMLID_412_">
					<path class="st2" d="M46,46.1c-7.5-3.3-17.8-4.5-25.4-4.8l0-1.2c7.4,0.3,18.1,1.4,25.4,5V46.1z"/>
				</g>
				<g id="XMLID_411_">
					<path class="st2" d="M46,49.9c-7.5-3.3-17.8-4.5-25.4-4.8l0-1.2c7.4,0.3,18.1,1.4,25.4,5V49.9z"/>
				</g>
				<g id="XMLID_410_">
					<path class="st2" d="M46,53.7c-7.5-3.3-17.8-4.5-25.4-4.8l0-1.2c7.4,0.3,18.1,1.4,25.4,5V53.7z"/>
				</g>
			</g>
		</g>
	</g>
</g>
</svg>
